# xmcd CD database file
#
# Track frame offsets:
#	150
#	12252
#	27472
#	40929
#	54120
#	65672
#	79749
#	90678
#	105608
#	119187
#	130662
#	143567
#
# Disc length: 2079 seconds
#
# Revision: 0
# Processed by: cddbd v1.5.2PL0 Copyright (c) Steve Scherf et al.
# Submitted via: CDex 1.70beta2
#
DISCID=9e081d0c
DTITLE=George Shearing - A Jazz Date With George Shearing
DYEAR=1900
DGENRE=Jazz
TTITLE0=Swedish Pastry
TTITLE1=Lonely Moments
TTITLE2=Bop, Look And Listen
TTITLE3=Conception
TTITLE4=Carnegie Horizons
TTITLE5=Strolling
TTITLE6=(Geneva's)Move
TTITLE7=How's Tricx?
TTITLE8=Nothing But D. Best
TTITLE9=Loosse Leaf
TTITLE10=Night Flight
TTITLE11=Mood For Milt
EXTD=
EXTT0=
EXTT1=
EXTT2=
EXTT3=
EXTT4=
EXTT5=
EXTT6=
EXTT7=
EXTT8=
EXTT9=
EXTT10=
EXTT11=
PLAYORDER=
